STARTFONT 2.1
COMMENT
COMMENT  Copyright (c) 2001, Poonlap Veerathanabutr
COMMENT
COMMENT  License to copy and distribute for both commercial and
COMMENT  non-commercial use is herby granted, provided this notice
COMMENT  is preserved.
COMMENT
COMMENT  Poonlap.Veerathanabutr@japan.sun.com
COMMENT  This font is my hobby, there is nothing related with Sun Microsystems.
COMMENT  The motivation is I want to use some Thai font with emacs but I don't 
COMMENT  like the default one. This font is a bit big but the "head" of thai shows
COMMENT  apparently which I think it is important.
COMMENT
COMMENT  Produced with bdfedit, a tcl/tk font editing program
COMMENT  written by Thomas A. Fine
FONT -poonlap-fixed-bold-i-normal--20-140-100-100-m-11-tis620-0
SIZE 20 100 100
FONTBOUNDINGBOX 22 26 -11 -6
STARTPROPERTIES 11
FOUNDRY "poonlap"
FAMILY_NAME "fixed"
WEIGHT_NAME "Medium"
SLANT "R"
SETWIDTH_NAME "Normal"
SPACING "c"
CHARSET_REGISTRY "ISO-8859"
CHARSET_ENCODING "1"
COPYRIGHT "Copyright (c) 2001 Poonlap Veerathanabutr Poonlap.Veerathanabutr@japan.sun.com"
FONT_ASCENT  20
FONT_DESCENT 6
ENDPROPERTIES
CHARS 191
STARTCHAR space
ENCODING 32
SWIDTH 550 0
DWIDTH 11 0
BBX 0 0 0 0
BITMAP
ENDCHAR
STARTCHAR exclam
ENCODING 33
SWIDTH 550 0
DWIDTH 11 0
BBX 5 12 1 0
BITMAP
08
18
18
10
30
30
20
20
00
00
c0
c0
ENDCHAR
STARTCHAR quotedbl
ENCODING 34
SWIDTH 550 0
DWIDTH 11 0
BBX 7 6 2 7
BITMAP
66
66
cc
cc
88
88
ENDCHAR
STARTCHAR numbersign
ENCODING 35
SWIDTH 550 0
DWIDTH 11 0
BBX 10 15 1 -2
BITMAP
0d80
0d80
0d80
0d80
0d80
3fc0
1b00
1b00
1b00
ff80
6c00
6c00
6c00
6c00
6c00
ENDCHAR
STARTCHAR dollar
ENCODING 36
SWIDTH 550 0
DWIDTH 11 0
BBX 8 14 2 -1
BITMAP
0c
0c
3e
63
60
60
38
0c
06
c6
c6
7c
30
30
ENDCHAR
STARTCHAR percent
ENCODING 37
SWIDTH 550 0
DWIDTH 11 0
BBX 8 12 1 0
BITMAP
1c
34
64
48
73
0f
38
f7
cd
19
12
1c
ENDCHAR
STARTCHAR ampersand
ENCODING 38
SWIDTH 550 0
DWIDTH 11 0
BBX 7 10 2 0
BITMAP
3c
78
60
60
30
7e
d8
cc
ce
76
ENDCHAR
STARTCHAR quoteright
ENCODING 39
SWIDTH 550 0
DWIDTH 11 0
BBX 3 5 4 7
BITMAP
60
60
c0
c0
80
ENDCHAR
STARTCHAR parenleft
ENCODING 40
SWIDTH 550 0
DWIDTH 11 0
BBX 5 14 4 -1
BITMAP
18
30
30
60
60
c0
c0
c0
c0
c0
c0
c0
60
60
ENDCHAR
STARTCHAR parenright
ENCODING 41
SWIDTH 550 0
DWIDTH 11 0
BBX 5 14 3 -2
BITMAP
30
30
18
18
18
18
18
18
18
30
30
60
60
c0
ENDCHAR
STARTCHAR asterisk
ENCODING 42
SWIDTH 550 0
DWIDTH 11 0
BBX 7 8 2 3
BITMAP
18
18
18
fe
18
2c
46
46
ENDCHAR
STARTCHAR plus
ENCODING 43
SWIDTH 550 0
DWIDTH 11 0
BBX 9 9 1 1
BITMAP
0600
0600
0600
0c00
ff80
0c00
1800
1800
1800
ENDCHAR
STARTCHAR comma
ENCODING 44
SWIDTH 550 0
DWIDTH 11 0
BBX 4 5 3 -3
BITMAP
30
70
60
c0
80
ENDCHAR
STARTCHAR minus
ENCODING 45
SWIDTH 550 0
DWIDTH 11 0
BBX 9 1 1 5
BITMAP
ff80
ENDCHAR
STARTCHAR period
ENCODING 46
SWIDTH 550 0
DWIDTH 11 0
BBX 2 2 4 0
BITMAP
c0
c0
ENDCHAR
STARTCHAR slash
ENCODING 47
SWIDTH 550 0
DWIDTH 11 0
BBX 8 14 2 -1
BITMAP
03
03
06
06
0c
0c
18
18
30
30
60
60
c0
c0
ENDCHAR
STARTCHAR zero
ENCODING 48
SWIDTH 550 0
DWIDTH 11 0
BBX 8 12 2 0
BITMAP
1e
33
63
63
c3
c3
c3
c3
c6
c6
cc
78
ENDCHAR
STARTCHAR one
ENCODING 49
SWIDTH 550 0
DWIDTH 11 0
BBX 7 12 2 0
BITMAP
06
3e
06
06
0c
0c
0c
0c
18
18
18
fe
ENDCHAR
STARTCHAR two
ENCODING 50
SWIDTH 550 0
DWIDTH 11 0
BBX 10 12 1 0
BITMAP
0f80
18c0
30c0
30c0
00c0
0180
0700
0c00
1800
3180
6180
ff80
ENDCHAR
STARTCHAR three
ENCODING 51
SWIDTH 550 0
DWIDTH 11 0
BBX 9 12 2 0
BITMAP
1f00
3180
0180
0180
0300
0e00
0300
0180
0180
0300
c700
7c00
ENDCHAR
STARTCHAR four
ENCODING 52
SWIDTH 550 0
DWIDTH 11 0
BBX 8 12 2 0
BITMAP
07
0f
1b
1b
36
66
66
c6
ff
0c
0c
3f
ENDCHAR
STARTCHAR five
ENCODING 53
SWIDTH 550 0
DWIDTH 11 0
BBX 9 12 2 0
BITMAP
3f00
3000
3000
6000
7e00
6300
0180
0180
0180
0300
c700
7c00
ENDCHAR
STARTCHAR six
ENCODING 54
SWIDTH 550 0
DWIDTH 11 0
BBX 8 12 3 0
BITMAP
0f
38
30
60
60
de
e3
e3
c3
c3
c6
7c
ENDCHAR
STARTCHAR seven
ENCODING 55
SWIDTH 550 0
DWIDTH 11 0
BBX 7 12 4 0
BITMAP
fe
c2
06
0c
0c
18
18
30
30
60
60
c0
ENDCHAR
STARTCHAR eight
ENCODING 56
SWIDTH 550 0
DWIDTH 11 0
BBX 8 12 3 0
BITMAP
1e
33
63
63
66
3c
66
c6
c6
c6
cc
78
ENDCHAR
STARTCHAR nine
ENCODING 57
SWIDTH 550 0
DWIDTH 11 0
BBX 9 12 2 0
BITMAP
0f00
1980
3180
3180
3180
3380
1d80
0300
0300
0600
1c00
f000
ENDCHAR
STARTCHAR colon
ENCODING 58
SWIDTH 550 0
DWIDTH 11 0
BBX 4 10 4 -1
BITMAP
20
70
70
20
00
00
40
e0
e0
40
ENDCHAR
STARTCHAR semicolon
ENCODING 59
SWIDTH 550 0
DWIDTH 11 0
BBX 6 12 2 -3
BITMAP
08
1c
1c
08
00
00
10
38
38
30
60
80
ENDCHAR
STARTCHAR less
ENCODING 60
SWIDTH 550 0
DWIDTH 11 0
BBX 10 8 1 2
BITMAP
00c0
0380
0f00
3c00
f000
3c00
0f00
0380
ENDCHAR
STARTCHAR equal
ENCODING 61
SWIDTH 550 0
DWIDTH 11 0
BBX 11 5 0 3
BITMAP
3fe0
7fc0
0000
7fc0
ff80
ENDCHAR
STARTCHAR greater
ENCODING 62
SWIDTH 550 0
DWIDTH 11 0
BBX 11 8 0 2
BITMAP
3c00
0f00
03c0
00e0
03c0
0f00
3c00
f000
ENDCHAR
STARTCHAR question
ENCODING 63
SWIDTH 550 0
DWIDTH 11 0
BBX 8 13 2 -2
BITMAP
7e
c3
c3
03
03
1e
18
18
00
08
1c
1c
08
ENDCHAR
STARTCHAR at
ENCODING 64
SWIDTH 550 0
DWIDTH 11 0
BBX 9 12 2 -1
BITMAP
0f00
3980
3180
6300
6f00
db00
f600
e600
df00
c000
c600
7c00
ENDCHAR
STARTCHAR A
ENCODING 65
SWIDTH 550 0
DWIDTH 11 0
BBX 9 11 2 0
BITMAP
0c00
0c00
1e00
1a00
3300
3300
6300
7f00
c180
c180
c180
ENDCHAR
STARTCHAR B
ENCODING 66
SWIDTH 550 0
DWIDTH 11 0
BBX 9 11 2 0
BITMAP
3f00
3180
3180
6180
6300
7e00
6300
c180
c180
c300
fe00
ENDCHAR
STARTCHAR C
ENCODING 67
SWIDTH 550 0
DWIDTH 11 0
BBX 10 11 1 0
BITMAP
0f00
3980
70c0
6000
c000
c000
c000
c000
60c0
7380
3e00
ENDCHAR
STARTCHAR D
ENCODING 68
SWIDTH 550 0
DWIDTH 11 0
BBX 10 11 1 0
BITMAP
3f00
3180
30c0
60c0
60c0
60c0
60c0
c1c0
c180
c300
fe00
ENDCHAR
STARTCHAR E
ENCODING 69
SWIDTH 550 0
DWIDTH 11 0
BBX 9 11 1 0
BITMAP
3f80
3000
3000
6000
6000
7e00
6000
c000
c000
c000
fe00
ENDCHAR
STARTCHAR F
ENCODING 70
SWIDTH 550 0
DWIDTH 11 0
BBX 8 11 2 0
BITMAP
3f
30
30
60
60
78
60
c0
c0
c0
c0
ENDCHAR
STARTCHAR G
ENCODING 71
SWIDTH 550 0
DWIDTH 11 0
BBX 10 11 1 0
BITMAP
0f80
38c0
7000
6000
c000
c000
c3c0
c0c0
60c0
7180
3f00
ENDCHAR
STARTCHAR H
ENCODING 72
SWIDTH 550 0
DWIDTH 11 0
BBX 10 11 1 0
BITMAP
30c0
30c0
30c0
6180
6180
7f80
6180
c300
c300
c300
c300
ENDCHAR
STARTCHAR I
ENCODING 73
SWIDTH 550 0
DWIDTH 11 0
BBX 8 11 2 0
BITMAP
3f
0c
0c
0c
18
18
18
30
30
30
fc
ENDCHAR
STARTCHAR J
ENCODING 74
SWIDTH 550 0
DWIDTH 11 0
BBX 10 11 1 0
BITMAP
03c0
00c0
00c0
00c0
0180
0180
6180
6300
c300
c700
7c00
ENDCHAR
STARTCHAR K
ENCODING 75
SWIDTH 550 0
DWIDTH 11 0
BBX 9 11 1 0
BITMAP
3180
3180
3300
3600
6c00
7c00
6600
4600
c300
c300
c300
ENDCHAR
STARTCHAR L
ENCODING 76
SWIDTH 550 0
DWIDTH 11 0
BBX 7 11 2 0
BITMAP
30
30
30
30
60
60
60
c0
c0
c0
fe
ENDCHAR
STARTCHAR M
ENCODING 77
SWIDTH 550 0
DWIDTH 11 0
BBX 10 11 0 0
BITMAP
30c0
30c0
31c0
73c0
73c0
6ec0
6cc0
c180
c180
c180
c180
ENDCHAR
STARTCHAR N
ENCODING 78
SWIDTH 550 0
DWIDTH 11 0
BBX 10 11 1 0
BITMAP
30c0
30c0
30c0
68c0
6980
6980
6580
c580
c300
c300
c300
ENDCHAR
STARTCHAR O
ENCODING 79
SWIDTH 550 0
DWIDTH 11 0
BBX 10 11 1 0
BITMAP
0f00
3980
7080
6040
c040
8040
8040
80c0
41c0
6380
3f00
ENDCHAR
STARTCHAR P
ENCODING 80
SWIDTH 550 0
DWIDTH 11 0
BBX 10 11 1 0
BITMAP
3f80
30c0
30c0
30c0
6180
6380
7f00
c000
c000
c000
c000
ENDCHAR
STARTCHAR Q
ENCODING 81
SWIDTH 550 0
DWIDTH 11 0
BBX 10 13 1 -2
BITMAP
0f80
39c0
70c0
6040
c040
c040
c040
ccc0
4780
6780
3f00
0180
0180
ENDCHAR
STARTCHAR R
ENCODING 82
SWIDTH 550 0
DWIDTH 11 0
BBX 9 11 1 0
BITMAP
3f00
3180
3180
6180
6300
7e00
6600
c300
c300
c180
c180
ENDCHAR
STARTCHAR S
ENCODING 83
SWIDTH 550 0
DWIDTH 11 0
BBX 9 11 1 0
BITMAP
1f00
3380
6000
6000
3000
1f00
0180
0180
0180
e300
7e00
ENDCHAR
STARTCHAR T
ENCODING 84
SWIDTH 550 0
DWIDTH 11 0
BBX 9 11 1 0
BITMAP
ff80
0c00
0c00
0c00
1800
1800
1800
3000
3000
3000
3000
ENDCHAR
STARTCHAR U
ENCODING 85
SWIDTH 550 0
DWIDTH 11 0
BBX 10 11 1 0
BITMAP
30c0
30c0
30c0
6180
6180
6180
c300
c300
c300
c600
7c00
ENDCHAR
STARTCHAR V
ENCODING 86
SWIDTH 550 0
DWIDTH 11 0
BBX 10 11 1 0
BITMAP
c0c0
c0c0
c180
6180
6300
6300
6600
6600
3c00
3800
3000
ENDCHAR
STARTCHAR W
ENCODING 87
SWIDTH 550 0
DWIDTH 11 0
BBX 11 11 0 0
BITMAP
c060
c060
ce60
cee0
d6e0
d780
e700
e700
c600
c600
8400
ENDCHAR
STARTCHAR X
ENCODING 88
SWIDTH 550 0
DWIDTH 11 0
BBX 10 11 1 0
BITMAP
30c0
30c0
3180
1b00
1e00
0c00
1e00
3600
6300
c300
c300
ENDCHAR
STARTCHAR Y
ENCODING 89
SWIDTH 550 0
DWIDTH 11 0
BBX 8 11 2 0
BITMAP
c3
c3
c6
6c
6c
30
30
30
60
60
60
ENDCHAR
STARTCHAR Z
ENCODING 90
SWIDTH 550 0
DWIDTH 11 0
BBX 10 11 1 0
BITMAP
3fc0
00c0
0180
0300
0600
0c00
1800
3000
6000
c000
ff00
ENDCHAR
STARTCHAR bracketleft
ENCODING 91
SWIDTH 550 0
DWIDTH 11 0
BBX 7 14 3 -3
BITMAP
1e
18
18
18
30
30
30
60
60
60
c0
c0
c0
f0
ENDCHAR
STARTCHAR backslash
ENCODING 92
SWIDTH 550 0
DWIDTH 11 0
BBX 8 14 2 -2
BITMAP
c0
c0
60
60
30
30
18
18
0c
0c
06
06
03
03
ENDCHAR
STARTCHAR bracketright
ENCODING 93
SWIDTH 550 0
DWIDTH 11 0
BBX 7 14 2 -2
BITMAP
1e
06
06
06
0c
0c
0c
18
18
18
30
30
30
f0
ENDCHAR
STARTCHAR asciicircum
ENCODING 94
SWIDTH 550 0
DWIDTH 11 0
BBX 8 5 2 8
BITMAP
0e
1e
33
63
c3
ENDCHAR
STARTCHAR underscore
ENCODING 95
SWIDTH 550 0
DWIDTH 11 0
BBX 11 2 0 -4
BITMAP
ffe0
ffe0
ENDCHAR
STARTCHAR quoteleft
ENCODING 96
SWIDTH 550 0
DWIDTH 11 0
BBX 3 5 4 7
BITMAP
c0
c0
60
60
20
ENDCHAR
STARTCHAR a
ENCODING 97
SWIDTH 550 0
DWIDTH 11 0
BBX 10 8 1 0
BITMAP
1f80
30c0
00c0
1f80
7180
e180
c380
7d80
ENDCHAR
STARTCHAR b
ENCODING 98
SWIDTH 550 0
DWIDTH 11 0
BBX 9 12 1 0
BITMAP
3000
3000
3000
3000
6f00
7180
6180
4180
c180
c300
c700
bc00
ENDCHAR
STARTCHAR c
ENCODING 99
SWIDTH 550 0
DWIDTH 11 0
BBX 9 8 1 0
BITMAP
1f00
3180
6000
c000
c000
c000
4300
3e00
ENDCHAR
STARTCHAR d
ENCODING 100
SWIDTH 550 0
DWIDTH 11 0
BBX 10 12 1 0
BITMAP
00c0
00c0
00c0
0180
1f80
3380
6180
c180
c300
c300
6700
3b00
ENDCHAR
STARTCHAR e
ENCODING 101
SWIDTH 550 0
DWIDTH 11 0
BBX 10 8 1 0
BITMAP
1f00
3180
60c0
ffc0
8000
8000
4380
3e00
ENDCHAR
STARTCHAR f
ENCODING 102
SWIDTH 550 0
DWIDTH 11 0
BBX 8 12 2 0
BITMAP
0f
18
18
18
fe
30
30
30
60
60
60
60
ENDCHAR
STARTCHAR g
ENCODING 103
SWIDTH 550 0
DWIDTH 11 0
BBX 9 12 2 -4
BITMAP
1d80
3380
6180
c180
c300
c300
4700
3b00
0300
0600
0e00
f800
ENDCHAR
STARTCHAR h
ENCODING 104
SWIDTH 550 0
DWIDTH 11 0
BBX 9 12 2 0
BITMAP
3000
3000
3000
3000
6f00
7180
6180
4180
c300
c300
c300
c300
ENDCHAR
STARTCHAR i
ENCODING 105
SWIDTH 550 0
DWIDTH 11 0
BBX 4 11 4 0
BITMAP
30
30
00
60
60
60
60
c0
c0
c0
c0
ENDCHAR
STARTCHAR j
ENCODING 106
SWIDTH 550 0
DWIDTH 11 0
BBX 9 15 2 -4
BITMAP
0180
0180
0000
0300
0300
0300
0300
0300
0600
0600
0600
0600
0600
0c00
f800
ENDCHAR
STARTCHAR k
ENCODING 107
SWIDTH 550 0
DWIDTH 11 0
BBX 7 12 1 0
BITMAP
30
30
30
30
66
6c
78
70
d8
cc
c6
c6
ENDCHAR
STARTCHAR l
ENCODING 108
SWIDTH 550 0
DWIDTH 11 0
BBX 4 12 3 0
BITMAP
30
30
30
30
60
60
60
60
c0
c0
c0
c0
ENDCHAR
STARTCHAR m
ENCODING 109
SWIDTH 550 0
DWIDTH 11 0
BBX 11 8 0 0
BITMAP
7980
7760
6660
6660
6660
ccc0
ccc0
ccc0
ENDCHAR
STARTCHAR n
ENCODING 110
SWIDTH 550 0
DWIDTH 11 0
BBX 9 8 2 0
BITMAP
6f00
7980
7180
6180
c300
c300
c300
c300
ENDCHAR
STARTCHAR o
ENCODING 111
SWIDTH 550 0
DWIDTH 11 0
BBX 10 8 1 0
BITMAP
1f00
3180
60c0
c0c0
c0c0
c180
6380
3e00
ENDCHAR
STARTCHAR p
ENCODING 112
SWIDTH 550 0
DWIDTH 11 0
BBX 10 12 1 -4
BITMAP
3780
3cc0
38c0
30c0
60c0
6180
6300
7e00
c000
c000
c000
c000
ENDCHAR
STARTCHAR q
ENCODING 113
SWIDTH 550 0
DWIDTH 11 0
BBX 9 12 1 -4
BITMAP
1d80
3380
6180
c180
c300
c300
c700
7b00
0600
0600
0600
0600
ENDCHAR
STARTCHAR r
ENCODING 114
SWIDTH 550 0
DWIDTH 11 0
BBX 8 8 2 0
BITMAP
6e
7b
60
60
60
c0
c0
c0
ENDCHAR
STARTCHAR s
ENCODING 115
SWIDTH 550 0
DWIDTH 11 0
BBX 7 8 2 0
BITMAP
3c
66
60
38
0c
06
c6
7c
ENDCHAR
STARTCHAR t
ENCODING 116
SWIDTH 550 0
DWIDTH 11 0
BBX 5 11 4 0
BITMAP
30
30
30
f8
60
60
60
c0
c0
c0
c0
ENDCHAR
STARTCHAR u
ENCODING 117
SWIDTH 550 0
DWIDTH 11 0
BBX 9 8 2 0
BITMAP
6180
6180
6180
c300
c300
c700
cf00
7b00
ENDCHAR
STARTCHAR v
ENCODING 118
SWIDTH 550 0
DWIDTH 11 0
BBX 8 8 2 0
BITMAP
c3
c3
c6
66
6c
6c
38
38
ENDCHAR
STARTCHAR w
ENCODING 119
SWIDTH 550 0
DWIDTH 11 0
BBX 9 8 2 0
BITMAP
c180
c180
d980
db00
fb00
ee00
ce00
8800
ENDCHAR
STARTCHAR x
ENCODING 120
SWIDTH 550 0
DWIDTH 11 0
BBX 9 8 1 0
BITMAP
3180
3180
1b00
0e00
1c00
3600
6300
c300
ENDCHAR
STARTCHAR y
ENCODING 121
SWIDTH 550 0
DWIDTH 11 0
BBX 8 12 3 -4
BITMAP
c3
c3
c6
66
6c
38
30
30
60
60
c0
c0
ENDCHAR
STARTCHAR z
ENCODING 122
SWIDTH 550 0
DWIDTH 11 0
BBX 9 8 2 0
BITMAP
7f80
0300
0600
0c00
1800
3000
6000
ff00
ENDCHAR
STARTCHAR braceleft
ENCODING 123
SWIDTH 550 0
DWIDTH 11 0
BBX 7 14 3 -3
BITMAP
0e
18
18
30
30
20
e0
30
30
60
60
60
60
38
ENDCHAR
STARTCHAR bar
ENCODING 124
SWIDTH 550 0
DWIDTH 11 0
BBX 4 14 4 -3
BITMAP
30
30
30
30
60
60
60
60
60
c0
c0
c0
c0
c0
ENDCHAR
STARTCHAR braceright
ENCODING 125
SWIDTH 550 0
DWIDTH 11 0
BBX 7 14 3 -3
BITMAP
38
0c
0c
0c
0c
18
18
0e
18
18
18
30
30
e0
ENDCHAR
STARTCHAR asciitilde
ENCODING 126
SWIDTH 550 0
DWIDTH 11 0
BBX 9 3 1 8
BITMAP
7800
dd80
0f00
ENDCHAR
STARTCHAR space
ENCODING 160
SWIDTH 550 0
DWIDTH 11 0
BBX 0 0 0 0
BITMAP
ENDCHAR
STARTCHAR KO_KAI
ENCODING 161
SWIDTH 550 0
DWIDTH 11 0
BBX 9 10 1 0
BITMAP
3e00
6300
7180
3180
3180
6300
6300
6300
c600
c600
ENDCHAR
STARTCHAR KHO_KHAI
ENCODING 162
SWIDTH 550 0
DWIDTH 11 0
BBX 9 10 1 0
BITMAP
3980
6d80
bd80
6d00
1b00
1b00
1b00
3600
3600
7e00
ENDCHAR
STARTCHAR KHO_KHUAT
ENCODING 163
SWIDTH 550 0
DWIDTH 11 0
BBX 9 10 2 0
BITMAP
5980
ed80
ad80
dd00
3b00
1b00
1300
3600
3600
7e00
ENDCHAR
STARTCHAR KHO_KHWAI
ENCODING 164
SWIDTH 550 0
DWIDTH 11 0
BBX 9 10 1 0
BITMAP
1e00
3300
6180
6d80
7580
7500
6b00
c600
c600
c600
ENDCHAR
STARTCHAR KHO_KHON
ENCODING 165
SWIDTH 550 0
DWIDTH 11 0
BBX 9 10 2 0
BITMAP
3a00
7700
c580
c980
5d80
7580
6b00
6600
c600
c600
ENDCHAR
STARTCHAR KHO_RAKHANG
ENCODING 166
SWIDTH 550 0
DWIDTH 11 0
BBX 10 10 1 0
BITMAP
68c0
dcc0
acc0
5cc0
2cc0
0d80
2d80
5d80
5b80
3980
ENDCHAR
STARTCHAR NGO_NGU
ENCODING 167
SWIDTH 550 0
DWIDTH 11 0
BBX 8 10 2 0
BITMAP
06
0b
0b
06
c6
c6
66
6c
3c
18
ENDCHAR
STARTCHAR CHO_CHAN
ENCODING 168
SWIDTH 550 0
DWIDTH 11 0
BBX 8 10 2 0
BITMAP
7c
c6
03
33
56
5e
2e
0c
18
18
ENDCHAR
STARTCHAR CHO_CHING
ENCODING 169
SWIDTH 550 0
DWIDTH 11 0
BBX 9 10 1 0
BITMAP
3c00
6600
0300
6300
b300
b600
7700
3d80
6580
6300
ENDCHAR
STARTCHAR CHO_CHANG
ENCODING 170
SWIDTH 550 0
DWIDTH 11 0
BBX 10 12 1 0
BITMAP
00c0
0180
7b00
ee00
af80
4d80
1980
1980
1980
3300
3300
7f00
ENDCHAR
STARTCHAR SO_SO
ENCODING 171
SWIDTH 550 0
DWIDTH 11 0
BBX 10 12 1 0
BITMAP
00c0
0180
5b00
fe00
af00
dd80
2d80
1980
1980
1980
3300
7f00
ENDCHAR
STARTCHAR CHO_CHOE
ENCODING 172
SWIDTH 550 0
DWIDTH 11 0
BBX 11 10 0 0
BITMAP
1860
3460
6660
3660
6660
ccc0
ecc0
b6c0
b7c0
4cc0
ENDCHAR
STARTCHAR YO_YING
ENCODING 173
SWIDTH 550 0
DWIDTH 11 0
BBX 11 14 0 -4
BITMAP
3c60
6660
6360
3360
6360
66c0
f6c0
b6c0
b6c0
6fc0
0000
1900
2f00
1e00
ENDCHAR
STARTCHAR DO_CHADA
ENCODING 174
SWIDTH 550 0
DWIDTH 11 0
BBX 9 14 1 -4
BITMAP
0e00
1900
1d80
0d80
1980
1980
3b00
5b00
5b00
3300
0600
ee00
b600
ce00
ENDCHAR
STARTCHAR TO_PATAK
ENCODING 175
SWIDTH 550 0
DWIDTH 11 0
BBX 10 14 0 -4
BITMAP
0700
0c80
0ec0
06c0
0cc0
0cc0
1d80
2d80
2d80
1980
5b00
f700
ab00
5900
ENDCHAR
STARTCHAR THO_THAN
ENCODING 176
SWIDTH 550 0
DWIDTH 11 0
BBX 12 14 -2 -4
BITMAP
03e0
0630
0390
01c0
0260
0560
0560
03c0
00c0
04c0
5800
f380
b580
4d80
ENDCHAR
STARTCHAR THO_NANGMONTHO
ENCODING 177
SWIDTH 550 0
DWIDTH 11 0
BBX 9 10 1 0
BITMAP
6b00
d780
ad80
5d80
2d80
1b00
3300
3300
3300
3300
ENDCHAR
STARTCHAR THO_PHUTHAO
ENCODING 178
SWIDTH 550 0
DWIDTH 11 0
BBX 11 10 0 0
BITMAP
3660
6f60
6b60
c960
d560
d560
6b40
76c0
cbc0
c4c0
ENDCHAR
STARTCHAR NO_NEN
ENCODING 179
SWIDTH 550 0
DWIDTH 11 0
BBX 10 10 0 0
BITMAP
38c0
6cc0
66c0
36c0
6580
cd80
ed80
dd40
dd40
6e80
ENDCHAR
STARTCHAR DO_DEK
ENCODING 180
SWIDTH 550 0
DWIDTH 11 0
BBX 10 10 1 0
BITMAP
1f00
3180
68c0
d6c0
d6c0
cd80
7980
6300
6300
6300
ENDCHAR
STARTCHAR TO_TAO
ENCODING 181
SWIDTH 550 0
DWIDTH 11 0
BBX 10 10 1 0
BITMAP
1b00
3580
64c0
c8c0
dcc0
d580
6d80
f300
c300
c300
ENDCHAR
STARTCHAR THO_THUNG
ENCODING 182
SWIDTH 550 0
DWIDTH 11 0
BBX 8 10 1 0
BITMAP
3c
66
73
33
63
63
f6
b6
b6
66
ENDCHAR
STARTCHAR THO_THAHAN
ENCODING 183
SWIDTH 550 0
DWIDTH 11 0
BBX 9 10 1 0
BITMAP
4600
ef00
bb80
7180
3180
6300
6300
c600
c600
c600
ENDCHAR
STARTCHAR THO_THONG
ENCODING 184
SWIDTH 550 0
DWIDTH 11 0
BBX 9 10 1 0
BITMAP
1c00
3300
6000
3e00
0300
3180
3180
6300
6300
fe00
ENDCHAR
STARTCHAR NO_NU
ENCODING 185
SWIDTH 550 0
DWIDTH 11 0
BBX 8 10 2 0
BITMAP
63
b3
b3
73
36
66
6e
db
fb
c6
ENDCHAR
STARTCHAR BO_BAIMAI
ENCODING 186
SWIDTH 550 0
DWIDTH 11 0
BBX 10 10 1 0
BITMAP
30c0
58c0
58c0
3980
1980
3180
3180
6300
6300
ff00
ENDCHAR
STARTCHAR PO_PLA
ENCODING 187
SWIDTH 550 0
DWIDTH 11 0
BBX 11 15 0 0
BITMAP
0060
0060
0060
00c0
00c0
30c0
58c0
5980
3980
1980
3180
3180
6300
6300
ff00
ENDCHAR
STARTCHAR PHO_PHUNG
ENCODING 188
SWIDTH 550 0
DWIDTH 11 0
BBX 10 10 1 0
BITMAP
18c0
2cc0
2cc0
7980
6180
6180
cb00
db00
f700
e600
ENDCHAR
STARTCHAR FO_FA
ENCODING 189
SWIDTH 550 0
DWIDTH 11 0
BBX 11 14 0 0
BITMAP
0060
0060
0060
00c0
18c0
2cc0
2cc0
7980
6180
6180
c980
dd80
f700
e600
ENDCHAR
STARTCHAR PHO_PHAN
ENCODING 190
SWIDTH 550 0
DWIDTH 11 0
BBX 11 10 0 0
BITMAP
3060
5860
58c0
38c0
30c0
6580
6d80
dd80
f700
e600
ENDCHAR
STARTCHAR FO_FAN
ENCODING 191
SWIDTH 550 0
DWIDTH 11 0
BBX 11 15 0 0
BITMAP
0060
0060
0060
00c0
00c0
60c0
b0c0
b180
7180
3180
6980
6b00
db00
ff00
e600
ENDCHAR
STARTCHAR PHO_SAMPHAO
ENCODING 192
SWIDTH 550 0
DWIDTH 11 0
BBX 10 10 1 0
BITMAP
0f80
18c0
30c0
18c0
1980
3180
7180
b300
b300
6300
ENDCHAR
STARTCHAR MO_MA
ENCODING 193
SWIDTH 550 0
DWIDTH 11 0
BBX 9 10 1 0
BITMAP
3180
5980
5980
3980
1b00
3300
7300
b600
be00
6600
ENDCHAR
STARTCHAR YO_YAK
ENCODING 194
SWIDTH 550 0
DWIDTH 11 0
BBX 10 10 1 0
BITMAP
18c0
2cc0
2d80
3980
3180
3b00
6300
6300
6300
ff00
ENDCHAR
STARTCHAR RO_RUA
ENCODING 195
SWIDTH 550 0
DWIDTH 11 0
BBX 7 10 2 0
BITMAP
7c
c6
f8
0c
0c
18
38
58
58
30
ENDCHAR
STARTCHAR RU
ENCODING 196
SWIDTH 550 0
DWIDTH 11 0
BBX 8 14 2 -4
BITMAP
3c
66
73
33
63
66
e6
b6
b6
6c
0c
0c
0c
0c
ENDCHAR
STARTCHAR LO_LING
ENCODING 197
SWIDTH 550 0
DWIDTH 11 0
BBX 9 10 2 0
BITMAP
3e00
6300
0180
3180
5b00
cb00
ef00
b600
b600
6600
ENDCHAR
STARTCHAR LU
ENCODING 198
SWIDTH 550 0
DWIDTH 11 0
BBX 9 14 1 -4
BITMAP
1e00
3300
3180
1980
3180
3300
7300
b300
b300
6600
0600
0600
0600
0600
ENDCHAR
STARTCHAR WO_WAEN
ENCODING 199
SWIDTH 550 0
DWIDTH 11 0
BBX 8 10 2 0
BITMAP
3e
63
c3
06
06
06
1c
2c
2c
18
ENDCHAR
STARTCHAR SO_SALA
ENCODING 200
SWIDTH 550 0
DWIDTH 11 0
BBX 10 13 1 0
BITMAP
00c0
00c0
0180
3f00
6180
60c0
ccc0
d580
7580
6d80
c300
c300
c300
ENDCHAR
STARTCHAR SO_RUSI
ENCODING 201
SWIDTH 550 0
DWIDTH 11 0
BBX 11 10 0 0
BITMAP
30c0
58c0
59a0
35c0
3b80
3580
6300
6300
6300
ff00
ENDCHAR
STARTCHAR SO_SUA
ENCODING 202
SWIDTH 550 0
DWIDTH 11 0
BBX 11 12 0 0
BITMAP
0060
0060
1fc0
31c0
00c0
38c0
6d80
6580
7780
b300
b300
6300
ENDCHAR
STARTCHAR HO_HIP
ENCODING 203
SWIDTH 550 0
DWIDTH 11 0
BBX 9 10 2 0
BITMAP
6300
b580
b580
6f00
7300
6300
c600
c600
c600
c600
ENDCHAR
STARTCHAR LO_CHULA
ENCODING 204
SWIDTH 550 0
DWIDTH 11 0
BBX 10 16 1 0
BITMAP
00c0
06c0
0d80
07c0
00c0
00c0
60c0
b0c0
b180
6180
6180
6980
db00
fb00
ef00
cc00
ENDCHAR
STARTCHAR O_ANG
ENCODING 205
SWIDTH 550 0
DWIDTH 11 0
BBX 9 10 1 0
BITMAP
1f00
3180
0180
3180
5980
5980
7300
6300
6300
ff00
ENDCHAR
STARTCHAR HO_NOKHUK
ENCODING 206
SWIDTH 550 0
DWIDTH 11 0
BBX 10 13 1 0
BITMAP
00c0
00c0
0180
1f00
3180
0180
3180
5980
5980
7300
6300
6300
ff00
ENDCHAR
STARTCHAR PAIYANNOI
ENCODING 207
SWIDTH 550 0
DWIDTH 11 0
BBX 8 10 2 0
BITMAP
63
b3
b7
6b
33
03
06
06
06
06
ENDCHAR
STARTCHAR SARA_A
ENCODING 208
SWIDTH 550 0
DWIDTH 11 0
BBX 8 10 1 0
BITMAP
20
53
53
3e
1c
40
a6
a6
7c
38
ENDCHAR
STARTCHAR MAI_HAN-AKAT
ENCODING 209
SWIDTH 0 0
DWIDTH 0 0
BBX 7 5 -9 11
BITMAP
40
a6
a6
7c
38
ENDCHAR
STARTCHAR SARA_AA
ENCODING 210
SWIDTH 550 0
DWIDTH 11 0
BBX 7 10 3 0
BITMAP
78
cc
06
06
06
06
0c
0c
0c
0c
ENDCHAR
STARTCHAR SARA_AM
ENCODING 211
SWIDTH 550 0
DWIDTH 11 0
BBX 10 13 0 0
BITMAP
6000
b000
6000
0700
0d80
18c0
00c0
00c0
00c0
0180
0180
0180
0180
ENDCHAR
STARTCHAR SARA_I
ENCODING 212
SWIDTH 0 0
DWIDTH 0 0
BBX 6 3 -9 11
BITMAP
78
cc
fc
ENDCHAR
STARTCHAR SARA_II
ENCODING 213
SWIDTH 0 0
DWIDTH 0 0
BBX 7 4 -9 11
BITMAP
06
76
dc
fc
ENDCHAR
STARTCHAR SARA_UE
ENCODING 214
SWIDTH 0 0
DWIDTH 0 0
BBX 7 4 -9 11
BITMAP
04
7a
9c
f8
ENDCHAR
STARTCHAR SARA_UEE
ENCODING 215
SWIDTH 0 0
DWIDTH 0 0
BBX 8 4 -9 11
BITMAP
1b
76
9c
fc
ENDCHAR
STARTCHAR SARA_U
ENCODING 216
SWIDTH 0 0
DWIDTH 0 0
BBX 3 4 -5 -5
BITMAP
40
a0
60
20
ENDCHAR
STARTCHAR SARA_UU
ENCODING 217
SWIDTH 0 0
DWIDTH 0 0
BBX 5 4 -7 -5
BITMAP
48
a8
68
38
ENDCHAR
STARTCHAR PHINTHU
ENCODING 218
SWIDTH 0 0
DWIDTH 0 0
BBX 4 3 -8 -4
BITMAP
60
f0
60
ENDCHAR
STARTCHAR Ucircumflex
ENCODING 219
SWIDTH 550 0
DWIDTH 11 0
BBX 0 0 0 0
BITMAP
ENDCHAR
STARTCHAR Udieresis
ENCODING 220
SWIDTH 550 0
DWIDTH 11 0
BBX 0 0 0 0
BITMAP
ENDCHAR
STARTCHAR Yacute
ENCODING 221
SWIDTH 550 0
DWIDTH 11 0
BBX 0 0 0 0
BITMAP
ENDCHAR
STARTCHAR Thorn
ENCODING 222
SWIDTH 550 0
DWIDTH 11 0
BBX 0 0 0 0
BITMAP
ENDCHAR
STARTCHAR SYMBOL_BAHT
ENCODING 223
SWIDTH 550 0
DWIDTH 11 0
BBX 9 16 1 -3
BITMAP
0500
0500
3f00
3780
3580
6a80
6b00
7e00
6f00
d580
d580
d700
fe00
2800
5000
5000
ENDCHAR
STARTCHAR SARA_E
ENCODING 224
SWIDTH 550 0
DWIDTH 11 0
BBX 4 10 4 0
BITMAP
60
60
60
60
c0
c0
e0
b0
b0
60
ENDCHAR
STARTCHAR SARA_AE
ENCODING 225
SWIDTH 550 0
DWIDTH 11 0
BBX 8 10 2 0
BITMAP
66
66
66
66
cc
cc
ee
bb
bb
66
ENDCHAR
STARTCHAR SARA_O
ENCODING 226
SWIDTH 550 0
DWIDTH 11 0
BBX 7 15 3 0
BITMAP
7c
c6
60
30
30
60
60
60
60
c0
c0
e0
b0
b0
60
ENDCHAR
STARTCHAR SARA_AI_MAIMUAN
ENCODING 227
SWIDTH 550 0
DWIDTH 11 0
BBX 7 15 2 0
BITMAP
38
6c
c6
e6
d6
66
0c
0c
0c
0c
18
18
2c
2c
18
ENDCHAR
STARTCHAR SARA_AI_MAIMALAI
ENCODING 228
SWIDTH 550 0
DWIDTH 11 0
BBX 7 15 2 0
BITMAP
8e
5e
36
06
0c
0c
0c
0c
0c
18
18
18
2c
2c
18
ENDCHAR
STARTCHAR LAKKHANGYAO
ENCODING 229
SWIDTH 550 0
DWIDTH 11 0
BBX 8 13 2 -3
BITMAP
3c
66
c3
03
03
06
06
06
0c
0c
0c
0c
0c
ENDCHAR
STARTCHAR MAIYAMOK
ENCODING 230
SWIDTH 550 0
DWIDTH 11 0
BBX 8 13 2 -3
BITMAP
6c
d6
e3
b3
b3
63
06
06
06
06
06
3c
60
ENDCHAR
STARTCHAR MAITAIKHU
ENCODING 231
SWIDTH 0 0
DWIDTH 0 0
BBX 7 6 -9 14
BITMAP
0c
38
60
d4
fa
64
ENDCHAR
STARTCHAR MAI_EK
ENCODING 232
SWIDTH 0 0
DWIDTH 0 0
BBX 3 4 -5 16
BITMAP
60
60
c0
c0
ENDCHAR
STARTCHAR MAI_THO
ENCODING 233
SWIDTH 0 0
DWIDTH 0 0
BBX 7 5 -8 15
BITMAP
46
a6
4c
30
60
ENDCHAR
STARTCHAR MAI_TRI
ENCODING 234
SWIDTH 0 0
DWIDTH 0 0
BBX 9 5 -9 15
BITMAP
2980
7580
c580
a600
6600
ENDCHAR
STARTCHAR MAI_CHATTAWA
ENCODING 235
SWIDTH 0 0
DWIDTH 0 0
BBX 6 5 -8 15
BITMAP
30
30
fc
30
30
ENDCHAR
STARTCHAR THANTHAKHAT
ENCODING 236
SWIDTH 0 0
DWIDTH 0 0
BBX 6 6 -7 14
BITMAP
0c
38
60
f0
b0
60
ENDCHAR
STARTCHAR NIKHAHIT
ENCODING 237
SWIDTH 0 0
DWIDTH 0 0
BBX 4 3 -8 16
BITMAP
60
b0
60
ENDCHAR
STARTCHAR YAMAKKAN
ENCODING 238
SWIDTH 0 0
DWIDTH 0 0
BBX 5 5 -8 15
BITMAP
38
60
70
c0
70
ENDCHAR
STARTCHAR FONGMAN
ENCODING 239
SWIDTH 550 0
DWIDTH 11 0
BBX 7 12 2 0
BITMAP
1c
22
62
56
ee
ee
ee
ee
d4
8c
88
70
ENDCHAR
STARTCHAR THAI_ZERO
ENCODING 240
SWIDTH 550 0
DWIDTH 11 0
BBX 9 10 1 0
BITMAP
1c00
3200
6300
c580
c980
d180
e180
4300
2600
1c00
ENDCHAR
STARTCHAR THAI_ONE
ENCODING 241
SWIDTH 550 0
DWIDTH 11 0
BBX 10 10 1 0
BITMAP
0f00
1980
3180
68c0
66c0
67c0
3d80
8180
6700
3c00
ENDCHAR
STARTCHAR THAI_TWO
ENCODING 242
SWIDTH 550 0
DWIDTH 11 0
BBX 10 12 1 0
BITMAP
c000
6000
6580
6ac0
dcc0
d6c0
d6c0
ccc0
c180
c180
6180
3f00
ENDCHAR
STARTCHAR THAI_THREE
ENCODING 243
SWIDTH 550 0
DWIDTH 11 0
BBX 11 10 0 0
BITMAP
1100
3fc0
6660
6660
c0e0
c0c0
e0c0
b1c0
b180
6180
ENDCHAR
STARTCHAR THAI_FOUR
ENCODING 244
SWIDTH 550 0
DWIDTH 11 0
BBX 10 13 1 0
BITMAP
00c0
0180
0300
1e00
3c00
6000
c400
ca00
ca00
ce00
6600
3380
1f80
ENDCHAR
STARTCHAR THAI_FIVE
ENCODING 245
SWIDTH 550 0
DWIDTH 11 0
BBX 9 15 1 0
BITMAP
0080
0580
0b00
0700
0200
1c00
3000
6000
c600
cb00
cb00
ce00
6600
3300
1f80
ENDCHAR
STARTCHAR THAI_SIX
ENCODING 246
SWIDTH 550 0
DWIDTH 11 0
BBX 9 12 2 0
BITMAP
6000
6000
3c00
3e00
0300
0180
3180
5980
d180
e300
c600
7c00
ENDCHAR
STARTCHAR THAI_SEVEN
ENCODING 247
SWIDTH 550 0
DWIDTH 11 0
BBX 10 13 1 0
BITMAP
0600
0300
0180
00c0
36c0
7ac0
6ac0
62c0
c2c0
e580
b580
b780
6600
ENDCHAR
STARTCHAR THAI_EIGHT
ENCODING 248
SWIDTH 550 0
DWIDTH 11 0
BBX 10 13 1 0
BITMAP
0080
0180
0300
1e00
3c00
6000
6000
6000
c400
c580
cec0
7ec0
3180
ENDCHAR
STARTCHAR THAI_NINE
ENCODING 249
SWIDTH 550 0
DWIDTH 11 0
BBX 10 12 1 0
BITMAP
00c0
00c0
06c0
6fc0
fd00
cc00
c600
c300
6c00
3600
1600
0c00
ENDCHAR
STARTCHAR ANGKHANKHU
ENCODING 250
SWIDTH 550 0
DWIDTH 11 0
BBX 8 10 2 0
BITMAP
4b
cb
cb
db
7b
1b
36
36
36
36
ENDCHAR
STARTCHAR KHOMUT
ENCODING 251
SWIDTH 550 0
DWIDTH 11 0
BBX 10 8 0 2
BITMAP
7000
c000
da00
dbc0
db00
da00
dc00
7000
ENDCHAR
STARTCHAR udieresis
ENCODING 252
SWIDTH 550 0
DWIDTH 11 0
BBX 0 0 0 0
BITMAP
ENDCHAR
STARTCHAR yacute
ENCODING 253
SWIDTH 550 0
DWIDTH 11 0
BBX 0 0 0 0
BITMAP
ENDCHAR
STARTCHAR thorn
ENCODING 254
SWIDTH 550 0
DWIDTH 11 0
BBX 0 0 0 0
BITMAP
ENDCHAR
STARTCHAR ydieresis
ENCODING 255
SWIDTH 550 0
DWIDTH 11 0
BBX 0 0 0 0
BITMAP
ENDCHAR
ENDFONT
